<?xml version="1.0" encoding="UTF-8"?>
<svg xmlns="http://www.w3.org/2000/svg" role="img" aria-labelledby="hfref-patient-impact-title hfref-patient-impact-desc"
     viewBox="0 0 920 746" width="920" height="746">
  <title id="hfref-patient-impact-title">What the pivotal evidence represents for 100 similar patients</title>
  <desc id="hfref-patient-impact-desc">Absolute translation of the composite endpoint — the bedside so-what, not the p-value. Source: PARADIGM-HF style pivotal RCT cited in the example brief — illustrative pending full extraction. MLR: required.</desc>
  <rect width="920" height="746" fill="#F7F4EF"/>
  <rect x="0" y="0" width="8" height="746" fill="#1A7A7A"/>
  <text x="32" y="36" fill="#C4A35A" font-size="11"
        font-family="Helvetica, Arial, sans-serif" letter-spacing="1.6">
    WHAT THE SCIENCE REPRESENTS</text>
  <text x="32" y="64" fill="#0B1F3A" font-size="22"
        font-family="Georgia, 'Times New Roman', serif">What the pivotal evidence represents for 100 similar patients</text>
  <text x="32" y="88" fill="#4A5568" font-size="13"
        font-family="Helvetica, Arial, sans-serif">Absolute translation of the composite endpoint — the bedside so-what, not the p-value</text>
  <text x="32" y="108" fill="#4A5568" font-size="12" font-family="Helvetica, Arial, sans-serif">Over the trial follow-up, compared with an ACE inhibitor</text><text x="32" y="132" fill="#0B1F3A" font-size="36" font-family="Georgia, serif">5</text><text x="88" y="126" fill="#4A5568" font-size="13" font-family="Helvetica, Arial, sans-serif">of 100 patients</text><text x="88" y="144" fill="#0B1F3A" font-size="14" font-family="Helvetica, Arial, sans-serif">avoid a cardiovascular death or heart-failure hospitalisation</text><circle cx="40" cy="172" r="6" fill="#2F6F4E"/><circle cx="58" cy="172" r="6" fill="#2F6F4E"/><circle cx="76" cy="172" r="6" fill="#2F6F4E"/><circle cx="94" cy="172" r="6" fill="#2F6F4E"/><circle cx="112" cy="172" r="6" fill="#2F6F4E"/><circle cx="130" cy="172" r="6" fill="#D6DEE8"/><circle cx="148" cy="172" r="6" fill="#D6DEE8"/><circle cx="166" cy="172" r="6" fill="#D6DEE8"/><circle cx="184" cy="172" r="6" fill="#D6DEE8"/><circle cx="202" cy="172" r="6" fill="#D6DEE8"/><circle cx="40" cy="190" r="6" fill="#D6DEE8"/><circle cx="58" cy="190" r="6" fill="#D6DEE8"/><circle cx="76" cy="190" r="6" fill="#D6DEE8"/><circle cx="94" cy="190" r="6" fill="#D6DEE8"/><circle cx="112" cy="190" r="6" fill="#D6DEE8"/><circle cx="130" cy="190" r="6" fill="#D6DEE8"/><circle cx="148" cy="190" r="6" fill="#D6DEE8"/><circle cx="166" cy="190" r="6" fill="#D6DEE8"/><circle cx="184" cy="190" r="6" fill="#D6DEE8"/><circle cx="202" cy="190" r="6" fill="#D6DEE8"/><circle cx="40" cy="208" r="6" fill="#D6DEE8"/><circle cx="58" cy="208" r="6" fill="#D6DEE8"/><circle cx="76" cy="208" r="6" fill="#D6DEE8"/><circle cx="94" cy="208" r="6" fill="#D6DEE8"/><circle cx="112" cy="208" r="6" fill="#D6DEE8"/><circle cx="130" cy="208" r="6" fill="#D6DEE8"/><circle cx="148" cy="208" r="6" fill="#D6DEE8"/><circle cx="166" cy="208" r="6" fill="#D6DEE8"/><circle cx="184" cy="208" r="6" fill="#D6DEE8"/><circle cx="202" cy="208" r="6" fill="#D6DEE8"/><circle cx="40" cy="226" r="6" fill="#D6DEE8"/><circle cx="58" cy="226" r="6" fill="#D6DEE8"/><circle cx="76" cy="226" r="6" fill="#D6DEE8"/><circle cx="94" cy="226" r="6" fill="#D6DEE8"/><circle cx="112" cy="226" r="6" fill="#D6DEE8"/><circle cx="130" cy="226" r="6" fill="#D6DEE8"/><circle cx="148" cy="226" r="6" fill="#D6DEE8"/><circle cx="166" cy="226" r="6" fill="#D6DEE8"/><circle cx="184" cy="226" r="6" fill="#D6DEE8"/><circle cx="202" cy="226" r="6" fill="#D6DEE8"/><circle cx="40" cy="244" r="6" fill="#D6DEE8"/><circle cx="58" cy="244" r="6" fill="#D6DEE8"/><circle cx="76" cy="244" r="6" fill="#D6DEE8"/><circle cx="94" cy="244" r="6" fill="#D6DEE8"/><circle cx="112" cy="244" r="6" fill="#D6DEE8"/><circle cx="130" cy="244" r="6" fill="#D6DEE8"/><circle cx="148" cy="244" r="6" fill="#D6DEE8"/><circle cx="166" cy="244" r="6" fill="#D6DEE8"/><circle cx="184" cy="244" r="6" fill="#D6DEE8"/><circle cx="202" cy="244" r="6" fill="#D6DEE8"/><circle cx="40" cy="262" r="6" fill="#D6DEE8"/><circle cx="58" cy="262" r="6" fill="#D6DEE8"/><circle cx="76" cy="262" r="6" fill="#D6DEE8"/><circle cx="94" cy="262" r="6" fill="#D6DEE8"/><circle cx="112" cy="262" r="6" fill="#D6DEE8"/><circle cx="130" cy="262" r="6" fill="#D6DEE8"/><circle cx="148" cy="262" r="6" fill="#D6DEE8"/><circle cx="166" cy="262" r="6" fill="#D6DEE8"/><circle cx="184" cy="262" r="6" fill="#D6DEE8"/><circle cx="202" cy="262" r="6" fill="#D6DEE8"/><circle cx="40" cy="280" r="6" fill="#D6DEE8"/><circle cx="58" cy="280" r="6" fill="#D6DEE8"/><circle cx="76" cy="280" r="6" fill="#D6DEE8"/><circle cx="94" cy="280" r="6" fill="#D6DEE8"/><circle cx="112" cy="280" r="6" fill="#D6DEE8"/><circle cx="130" cy="280" r="6" fill="#D6DEE8"/><circle cx="148" cy="280" r="6" fill="#D6DEE8"/><circle cx="166" cy="280" r="6" fill="#D6DEE8"/><circle cx="184" cy="280" r="6" fill="#D6DEE8"/><circle cx="202" cy="280" r="6" fill="#D6DEE8"/><circle cx="40" cy="298" r="6" fill="#D6DEE8"/><circle cx="58" cy="298" r="6" fill="#D6DEE8"/><circle cx="76" cy="298" r="6" fill="#D6DEE8"/><circle cx="94" cy="298" r="6" fill="#D6DEE8"/><circle cx="112" cy="298" r="6" fill="#D6DEE8"/><circle cx="130" cy="298" r="6" fill="#D6DEE8"/><circle cx="148" cy="298" r="6" fill="#D6DEE8"/><circle cx="166" cy="298" r="6" fill="#D6DEE8"/><circle cx="184" cy="298" r="6" fill="#D6DEE8"/><circle cx="202" cy="298" r="6" fill="#D6DEE8"/><circle cx="40" cy="316" r="6" fill="#D6DEE8"/><circle cx="58" cy="316" r="6" fill="#D6DEE8"/><circle cx="76" cy="316" r="6" fill="#D6DEE8"/><circle cx="94" cy="316" r="6" fill="#D6DEE8"/><circle cx="112" cy="316" r="6" fill="#D6DEE8"/><circle cx="130" cy="316" r="6" fill="#D6DEE8"/><circle cx="148" cy="316" r="6" fill="#D6DEE8"/><circle cx="166" cy="316" r="6" fill="#D6DEE8"/><circle cx="184" cy="316" r="6" fill="#D6DEE8"/><circle cx="202" cy="316" r="6" fill="#D6DEE8"/><circle cx="40" cy="334" r="6" fill="#D6DEE8"/><circle cx="58" cy="334" r="6" fill="#D6DEE8"/><circle cx="76" cy="334" r="6" fill="#D6DEE8"/><circle cx="94" cy="334" r="6" fill="#D6DEE8"/><circle cx="112" cy="334" r="6" fill="#D6DEE8"/><circle cx="130" cy="334" r="6" fill="#D6DEE8"/><circle cx="148" cy="334" r="6" fill="#D6DEE8"/><circle cx="166" cy="334" r="6" fill="#D6DEE8"/><circle cx="184" cy="334" r="6" fill="#D6DEE8"/><circle cx="202" cy="334" r="6" fill="#D6DEE8"/><text x="32" y="422" fill="#0B1F3A" font-size="36" font-family="Georgia, serif">22</text><text x="88" y="416" fill="#4A5568" font-size="13" font-family="Helvetica, Arial, sans-serif">of 100 patients</text><text x="88" y="434" fill="#0B1F3A" font-size="14" font-family="Helvetica, Arial, sans-serif">still experience the composite event — residual risk the campaign must not over-claim</text><circle cx="40" cy="462" r="6" fill="#9A5B13"/><circle cx="58" cy="462" r="6" fill="#9A5B13"/><circle cx="76" cy="462" r="6" fill="#9A5B13"/><circle cx="94" cy="462" r="6" fill="#9A5B13"/><circle cx="112" cy="462" r="6" fill="#9A5B13"/><circle cx="130" cy="462" r="6" fill="#9A5B13"/><circle cx="148" cy="462" r="6" fill="#9A5B13"/><circle cx="166" cy="462" r="6" fill="#9A5B13"/><circle cx="184" cy="462" r="6" fill="#9A5B13"/><circle cx="202" cy="462" r="6" fill="#9A5B13"/><circle cx="40" cy="480" r="6" fill="#9A5B13"/><circle cx="58" cy="480" r="6" fill="#9A5B13"/><circle cx="76" cy="480" r="6" fill="#9A5B13"/><circle cx="94" cy="480" r="6" fill="#9A5B13"/><circle cx="112" cy="480" r="6" fill="#9A5B13"/><circle cx="130" cy="480" r="6" fill="#9A5B13"/><circle cx="148" cy="480" r="6" fill="#9A5B13"/><circle cx="166" cy="480" r="6" fill="#9A5B13"/><circle cx="184" cy="480" r="6" fill="#9A5B13"/><circle cx="202" cy="480" r="6" fill="#9A5B13"/><circle cx="40" cy="498" r="6" fill="#9A5B13"/><circle cx="58" cy="498" r="6" fill="#9A5B13"/><circle cx="76" cy="498" r="6" fill="#D6DEE8"/><circle cx="94" cy="498" r="6" fill="#D6DEE8"/><circle cx="112" cy="498" r="6" fill="#D6DEE8"/><circle cx="130" cy="498" r="6" fill="#D6DEE8"/><circle cx="148" cy="498" r="6" fill="#D6DEE8"/><circle cx="166" cy="498" r="6" fill="#D6DEE8"/><circle cx="184" cy="498" r="6" fill="#D6DEE8"/><circle cx="202" cy="498" r="6" fill="#D6DEE8"/><circle cx="40" cy="516" r="6" fill="#D6DEE8"/><circle cx="58" cy="516" r="6" fill="#D6DEE8"/><circle cx="76" cy="516" r="6" fill="#D6DEE8"/><circle cx="94" cy="516" r="6" fill="#D6DEE8"/><circle cx="112" cy="516" r="6" fill="#D6DEE8"/><circle cx="130" cy="516" r="6" fill="#D6DEE8"/><circle cx="148" cy="516" r="6" fill="#D6DEE8"/><circle cx="166" cy="516" r="6" fill="#D6DEE8"/><circle cx="184" cy="516" r="6" fill="#D6DEE8"/><circle cx="202" cy="516" r="6" fill="#D6DEE8"/><circle cx="40" cy="534" r="6" fill="#D6DEE8"/><circle cx="58" cy="534" r="6" fill="#D6DEE8"/><circle cx="76" cy="534" r="6" fill="#D6DEE8"/><circle cx="94" cy="534" r="6" fill="#D6DEE8"/><circle cx="112" cy="534" r="6" fill="#D6DEE8"/><circle cx="130" cy="534" r="6" fill="#D6DEE8"/><circle cx="148" cy="534" r="6" fill="#D6DEE8"/><circle cx="166" cy="534" r="6" fill="#D6DEE8"/><circle cx="184" cy="534" r="6" fill="#D6DEE8"/><circle cx="202" cy="534" r="6" fill="#D6DEE8"/><circle cx="40" cy="552" r="6" fill="#D6DEE8"/><circle cx="58" cy="552" r="6" fill="#D6DEE8"/><circle cx="76" cy="552" r="6" fill="#D6DEE8"/><circle cx="94" cy="552" r="6" fill="#D6DEE8"/><circle cx="112" cy="552" r="6" fill="#D6DEE8"/><circle cx="130" cy="552" r="6" fill="#D6DEE8"/><circle cx="148" cy="552" r="6" fill="#D6DEE8"/><circle cx="166" cy="552" r="6" fill="#D6DEE8"/><circle cx="184" cy="552" r="6" fill="#D6DEE8"/><circle cx="202" cy="552" r="6" fill="#D6DEE8"/><circle cx="40" cy="570" r="6" fill="#D6DEE8"/><circle cx="58" cy="570" r="6" fill="#D6DEE8"/><circle cx="76" cy="570" r="6" fill="#D6DEE8"/><circle cx="94" cy="570" r="6" fill="#D6DEE8"/><circle cx="112" cy="570" r="6" fill="#D6DEE8"/><circle cx="130" cy="570" r="6" fill="#D6DEE8"/><circle cx="148" cy="570" r="6" fill="#D6DEE8"/><circle cx="166" cy="570" r="6" fill="#D6DEE8"/><circle cx="184" cy="570" r="6" fill="#D6DEE8"/><circle cx="202" cy="570" r="6" fill="#D6DEE8"/><circle cx="40" cy="588" r="6" fill="#D6DEE8"/><circle cx="58" cy="588" r="6" fill="#D6DEE8"/><circle cx="76" cy="588" r="6" fill="#D6DEE8"/><circle cx="94" cy="588" r="6" fill="#D6DEE8"/><circle cx="112" cy="588" r="6" fill="#D6DEE8"/><circle cx="130" cy="588" r="6" fill="#D6DEE8"/><circle cx="148" cy="588" r="6" fill="#D6DEE8"/><circle cx="166" cy="588" r="6" fill="#D6DEE8"/><circle cx="184" cy="588" r="6" fill="#D6DEE8"/><circle cx="202" cy="588" r="6" fill="#D6DEE8"/><circle cx="40" cy="606" r="6" fill="#D6DEE8"/><circle cx="58" cy="606" r="6" fill="#D6DEE8"/><circle cx="76" cy="606" r="6" fill="#D6DEE8"/><circle cx="94" cy="606" r="6" fill="#D6DEE8"/><circle cx="112" cy="606" r="6" fill="#D6DEE8"/><circle cx="130" cy="606" r="6" fill="#D6DEE8"/><circle cx="148" cy="606" r="6" fill="#D6DEE8"/><circle cx="166" cy="606" r="6" fill="#D6DEE8"/><circle cx="184" cy="606" r="6" fill="#D6DEE8"/><circle cx="202" cy="606" r="6" fill="#D6DEE8"/><circle cx="40" cy="624" r="6" fill="#D6DEE8"/><circle cx="58" cy="624" r="6" fill="#D6DEE8"/><circle cx="76" cy="624" r="6" fill="#D6DEE8"/><circle cx="94" cy="624" r="6" fill="#D6DEE8"/><circle cx="112" cy="624" r="6" fill="#D6DEE8"/><circle cx="130" cy="624" r="6" fill="#D6DEE8"/><circle cx="148" cy="624" r="6" fill="#D6DEE8"/><circle cx="166" cy="624" r="6" fill="#D6DEE8"/><circle cx="184" cy="624" r="6" fill="#D6DEE8"/><circle cx="202" cy="624" r="6" fill="#D6DEE8"/>
  <text x="32" y="728" fill="#8A8276" font-size="11"
        font-family="Helvetica, Arial, sans-serif">Source: PARADIGM-HF style pivotal RCT cited in the example brief — illustrative pending full extraction  ·  MLR: required</text>
</svg>
